<svg width="20.000000" height="20.000000" viewBox="0 0 20 20" fill="none" xmlns="http://www.w3.org/2000/svg" xmlns:xlink="http://www.w3.org/1999/xlink">
	<desc>
			Created with Pixso.
	</desc>
	<defs/>
	<path d="M17.07 0L2.92 0C1.31 0 0 1.31 0 2.92L0 17.07C0 18.68 1.31 20 2.92 20L8.82 20L8.82 12.92L6.48 12.92L6.48 9.41L8.82 9.41L8.82 7.03C8.82 5.09 10.4 3.51 12.34 3.51L15.89 3.51L15.89 7.03L12.34 7.03L12.34 9.41L15.89 9.41L15.31 12.92L12.34 12.92L12.34 20L17.07 20C18.68 20 20 18.68 20 17.07L20 2.92C20 1.31 18.68 0 17.07 0Z" fill="#000000" fill-opacity="1.000000" fill-rule="nonzero"/>
</svg>
