<svg width="29.000000" height="28.999420" viewBox="0 0 29 28.9994" fill="none" xmlns="http://www.w3.org/2000/svg" xmlns:xlink="http://www.w3.org/1999/xlink">
	<desc>
			Created with Pixso.
	</desc>
	<defs/>
	<path d="M17.15 14.49L28.44 3.2C29.18 2.47 29.18 1.28 28.44 0.55C27.71 -0.19 26.52 -0.19 25.79 0.55L14.49 11.84L3.2 0.55C2.47 -0.19 1.28 -0.19 0.55 0.55C-0.19 1.28 -0.19 2.47 0.55 3.2L11.84 14.49L0.55 25.79C-0.19 26.52 -0.19 27.71 0.55 28.44C0.91 28.81 1.39 28.99 1.87 28.99C2.36 28.99 2.84 28.81 3.2 28.44L14.49 17.15L25.79 28.44C26.15 28.81 26.63 28.99 27.12 28.99C27.6 28.99 28.08 28.81 28.44 28.44C29.18 27.71 29.18 26.52 28.44 25.79L17.15 14.49Z" fill="#000000" fill-opacity="1.000000" fill-rule="nonzero"/>
</svg>
